<?xml version="1.0" standalone="no"?>
<!DOCTYPE svg PUBLIC "-//W3C//DTD SVG 20010904//EN"
 "http://www.w3.org/TR/2001/REC-SVG-20010904/DTD/svg10.dtd">
<svg version="1.0" xmlns="http://www.w3.org/2000/svg"
 width="275.000000pt" height="130.000000pt" viewBox="0 0 275.000000 130.000000"
 preserveAspectRatio="xMidYMid meet">
<metadata>
Created by potrace 1.16, written by Peter Selinger 2001-2019
</metadata>
<g transform="translate(0.000000,130.000000) scale(0.100000,-0.100000)"
fill="#000000" stroke="none">
<path d="M1986 1219 c-137 -47 -234 -153 -265 -290 -6 -25 -11 -183 -11 -356
l0 -313 75 0 75 0 0 150 0 150 -61 0 -61 0 4 188 c3 178 4 190 30 244 37 79
98 142 177 181 61 30 73 32 166 32 92 -1 105 -3 160 -32 65 -33 145 -111 171
-166 16 -33 16 -34 -16 -65 -21 -21 -30 -40 -28 -54 3 -21 9 -23 81 -26 71 -3
77 -1 77 17 0 34 -18 69 -39 76 -11 3 -34 32 -51 63 -17 31 -41 69 -54 84
-105 119 -283 168 -430 117z"/>
<path d="M269 772 c-24 -21 -34 -40 -38 -73 -6 -41 -8 -44 -39 -47 -32 -3 -33
-4 -30 -45 3 -39 5 -42 36 -45 l32 -3 0 -150 0 -149 75 0 75 0 0 150 0 150 40
0 40 0 0 45 0 45 -41 0 c-36 0 -40 2 -37 23 2 18 10 23 41 25 l37 3 0 50 0 49
-80 0 c-73 0 -82 -2 -111 -28z"/>
<path d="M1398 718 c-3 -63 -3 -63 -35 -66 -32 -3 -33 -5 -33 -48 0 -44 0 -44
35 -44 l35 0 0 -115 c0 -139 11 -169 68 -184 42 -12 71 -13 125 -5 l37 7 0 53
c0 52 -1 54 -28 54 -44 0 -52 16 -52 107 l0 83 40 0 40 0 0 45 0 45 -40 0 -40
0 0 65 0 65 -75 0 -74 0 -3 -62z"/>
<path d="M659 659 c-112 -17 -169 -84 -169 -200 0 -134 77 -209 215 -209 95 0
162 36 195 105 35 73 22 193 -28 248 -40 45 -130 68 -213 56z m98 -135 c18
-28 14 -124 -6 -148 -20 -24 -77 -20 -95 6 -18 26 -21 109 -5 139 22 42 79 43
106 3z"/>
<path d="M1213 659 c-17 -5 -41 -21 -52 -35 l-21 -27 0 27 c0 26 -1 26 -75 26
l-75 0 0 -195 0 -195 74 0 74 0 4 105 c5 136 19 159 102 163 l56 3 0 64 c0 50
-3 65 -14 65 -8 0 -20 2 -28 4 -7 2 -27 0 -45 -5z"/>
<path d="M2079 659 c-68 -10 -108 -35 -126 -77 -13 -32 -14 -42 -2 -77 17 -49
51 -69 149 -90 85 -18 100 -27 84 -53 -18 -28 -68 -27 -92 2 -18 23 -27 26
-84 26 -36 0 -67 -3 -71 -6 -10 -10 13 -61 41 -86 37 -35 83 -48 161 -48 71 1
131 18 162 46 30 27 44 85 30 127 -18 53 -44 66 -204 101 -32 7 -47 34 -26 47
24 15 58 10 76 -11 14 -16 30 -20 86 -20 66 0 68 1 62 23 -13 43 -35 65 -77
80 -55 20 -111 25 -169 16z"/>
<path d="M2400 455 l0 -195 80 0 80 0 0 195 0 195 -80 0 -80 0 0 -195z"/>
</g>
</svg>
